<svg xmlns="http://www.w3.org/2000/svg" xmlns:svg="http://www.w3.org/2000/svg" xmlns:xlink="http://www.w3.org/1999/xlink" version="1.0" height="890pt" width="670pt" viewBox="175 402 678 896" ><defs><style type="text/css">
            @font-face {
                font-family: 'noto_regular';
                src: url('https://app.creately.com/diagram/assets/fonts/noto/noto-regular.woff') format('woff'),
                     url('https://app.creately.com/diagram/assets/fonts/noto/noto-regular.woff2') format('woff2');
                font-weight: normal;
                font-style: normal;
            }
        p {
            margin: 0;
        }
        </style></defs><defs><style>
            span{ display: inline-block; }
        </style></defs><g id="29u4r8cvo7"><g transform="translate(310 470)"><path d="M 25,0 L 0,25 L 25,50 L 50,25 L 25,0 Z" fill="rgba(255,255,255,1)" stroke="#000000" stroke-width="2" stroke-linecap="round" stroke-linejoin="round"/></g></g><g id="bl1quebuiu"><g transform="translate(290 555)"><path d="M 20.000000298023224,40.00000059604645 L 20.000000298023224,40.00000059604645 L 20.000000298023224,40.00000059604645 A 20.000000298023224 20.000000298023224 0 0 1 0 20.000000298023227 L 0,20.000000298023224 L 0,20.000000298023227 A 20.000000298023224 20.000000298023224 0 0 1 20.000000298023224 0 L 74.99999850988388,0 L 74.99999850988388,0 L 74.99999850988388,0 A 20.000000298023224 20.000000298023224 0 0 1 94.9999988079071 20.000000298023224 L 94.9999988079071,20.000000298023224 L 94.9999988079071,20.000000298023224 A 20.000000298023224 20.000000298023224 0 0 1 74.99999850988388 40.00000059604645 L 20.000000298023224,40.00000059604645 Z" fill="rgba(255,255,255,1)" stroke="#000000" stroke-width="2" stroke-linecap="round" stroke-linejoin="round"/></g><g transform="translate(309.49999940395355, 565.0000002980232) rotate(0, 28, 10)" width="56" height="20"><text text-decoration="none" x="5" fill="rgb(0, 0, 0)" font-weight="bold" font-size="13pt" font-family="Arial"  y="16">Enroll</text><text text-decoration="none" x="51" fill="#4b4b4b" font-size="10pt" font-family="noto_regular"  y="16"></text></g></g><g id="6dmn8qkug9"><g transform="translate(270 645)"><path d="M 20.000001788139343,40.00000357627869 L 20.000001788139343,40.00000357627869 L 20.000001788139343,40.00000357627869 A 20.000001788139343 20.000001788139343 0 0 1 0 20.000001788139347 L 0,20.000001788139343 L 0,20.000001788139347 A 20.000001788139343 20.000001788139343 0 0 1 20.000001788139343 0 L 106.57894015312195,0 L 106.57894015312195,0 L 106.57894015312195,0 A 20.000001788139343 20.000001788139343 0 0 1 126.57894194126129 20.000001788139343 L 126.57894194126129,20.000001788139343 L 126.57894194126129,20.000001788139343 A 20.000001788139343 20.000001788139343 0 0 1 106.57894015312195 40.00000357627869 L 20.000001788139343,40.00000357627869 Z" fill="rgba(255,255,255,1)" stroke="#000000" stroke-width="2" stroke-linecap="round" stroke-linejoin="round"/></g><g transform="translate(280.28947097063065, 645.0000017881393) rotate(0, 53, 20)" width="106" height="40"><text text-decoration="none" x="5" fill="rgb(0, 0, 0)" font-size="13pt" font-family="Arial"  y="16">Membership&#160;</text><text text-decoration="none" x="37" fill="rgb(0, 0, 0)" font-size="13pt" font-family="Arial"  y="36">Join</text><text text-decoration="none" x="69" fill="#4b4b4b" font-size="10pt" font-family="noto_regular"  y="36"></text></g></g><g id="4ka870cec4"><g transform="translate(280 735)"><path d="M 20.000001788139343,40.00000357627869 L 20.000001788139343,40.00000357627869 L 20.000001788139343,40.00000357627869 A 20.000001788139343 20.000001788139343 0 0 1 0 20.000001788139347 L 0,20.000001788139343 L 0,20.000001788139347 A 20.000001788139343 20.000001788139343 0 0 1 20.000001788139343 0 L 90.78947305679321,0 L 90.78947305679321,0 L 90.78947305679321,0 A 20.000001788139343 20.000001788139343 0 0 1 110.78947484493256 20.000001788139343 L 110.78947484493256,20.000001788139343 L 110.78947484493256,20.000001788139343 A 20.000001788139343 20.000001788139343 0 0 1 90.78947305679321 40.00000357627869 L 20.000001788139343,40.00000357627869 Z" fill="rgba(255,255,255,1)" stroke="#000000" stroke-width="2" stroke-linecap="round" stroke-linejoin="round"/></g><g transform="translate(288.3947374224663, 735.0000017881393) rotate(0, 47, 20)" width="94" height="40"><text text-decoration="none" x="6" fill="rgb(0, 0, 0)" font-size="13pt" font-family="Arial"  y="16">Equipment&#160;</text><text text-decoration="none" x="30" fill="rgb(0, 0, 0)" font-size="13pt" font-family="Arial"  y="36">Rent</text><text text-decoration="none" x="64" fill="#4b4b4b" font-size="10pt" font-family="noto_regular"  y="36"></text></g></g><g id="19ozk6ku4l"><g transform="translate(290 820)"><path d="M 20.000000298023224,40.00000059604645 L 20.000000298023224,40.00000059604645 L 20.000000298023224,40.00000059604645 A 20.000000298023224 20.000000298023224 0 0 1 0 20.000000298023227 L 0,20.000000298023224 L 0,20.000000298023227 A 20.000000298023224 20.000000298023224 0 0 1 20.000000298023224 0 L 74.99999850988388,0 L 74.99999850988388,0 L 74.99999850988388,0 A 20.000000298023224 20.000000298023224 0 0 1 94.9999988079071 20.000000298023224 L 94.9999988079071,20.000000298023224 L 94.9999988079071,20.000000298023224 A 20.000000298023224 20.000000298023224 0 0 1 74.99999850988388 40.00000059604645 L 20.000000298023224,40.00000059604645 Z" fill="rgba(255,255,255,1)" stroke="#000000" stroke-width="2" stroke-linecap="round" stroke-linejoin="round"/></g><g transform="translate(307.49999940395355, 820.0000002980232) rotate(0, 30, 20)" width="60" height="40"><text text-decoration="none" x="4.5" fill="rgb(0, 0, 0)" font-size="13pt" font-family="Arial"  y="16">Sign-in</text><text text-decoration="none" x="55.5" fill="rgb(0, 0, 0)" font-size="13pt" font-family="Arial"  y="16"></text><text text-decoration="none" x="9" fill="rgb(0, 0, 0)" font-size="13pt" font-family="Arial"  y="36">Class</text><text text-decoration="none" x="51" fill="#4b4b4b" font-size="10pt" font-family="noto_regular"  y="36"></text></g></g><g id="1fo0le771s"><g transform="translate(280 895)"><path d="M 20.000001788139343,40.00000357627869 L 20.000001788139343,40.00000357627869 L 20.000001788139343,40.00000357627869 A 20.000001788139343 20.000001788139343 0 0 1 0 20.000001788139347 L 0,20.000001788139343 L 0,20.000001788139347 A 20.000001788139343 20.000001788139343 0 0 1 20.000001788139343 0 L 90.78947305679321,0 L 90.78947305679321,0 L 90.78947305679321,0 A 20.000001788139343 20.000001788139343 0 0 1 110.78947484493256 20.000001788139343 L 110.78947484493256,20.000001788139343 L 110.78947484493256,20.000001788139343 A 20.000001788139343 20.000001788139343 0 0 1 90.78947305679321 40.00000357627869 L 20.000001788139343,40.00000357627869 Z" fill="rgba(255,255,255,1)" stroke="#000000" stroke-width="2" stroke-linecap="round" stroke-linejoin="round"/></g><g transform="translate(286.3947374224663, 905.0000017881393) rotate(0, 49, 10)" width="98" height="20"><text text-decoration="none" x="5.5" fill="rgb(0, 0, 0)" font-size="13pt" font-family="Arial"  y="16">Attendance</text><text text-decoration="none" x="92.5" fill="#4b4b4b" font-size="10pt" font-family="noto_regular"  y="16"></text></g></g><g id="20rqmnzr4y"><g transform="translate(325 405)"><ellipse cx="10.5" cy="10.5" rx="10.5" ry="10.5" fill="rgba(255,255,255,1)" stroke="#ffffff" stroke-width="NaN" stroke-linecap="round" stroke-linejoin="round"/></g></g><g id="337q1a1rae"><g><path d="M 335,425 L 335,470" fill="none" stroke="#000000" stroke-width="1.5" stroke-linecap="round" stroke-linejoin="round" stroke-dasharray="5 5"/><path d="M 335,470 L 341.49717514124296,463.04347826086956 M 335,470 L 328.50282485875704,463.04347826086956 Z" fill="rgb(255,255,255)" stroke="#000000" stroke-width="1.5" stroke-linecap="round" stroke-linejoin="round"/></g></g><g id="lb7bhps5z8"><g><path d="M 335,520 L 335,555" fill="none" stroke="#000000" stroke-width="2" stroke-linecap="round" stroke-linejoin="round"/><path d="M 335,555 L 341.49717514124296,548.0434782608696 M 335,555 L 328.50282485875704,548.0434782608696 Z" fill="rgb(255,255,255)" stroke="#000000" stroke-width="2" stroke-linecap="round" stroke-linejoin="round"/></g></g><g id="2gbqq6eam2"><g><path d="M 335,595 L 335,645" fill="none" stroke="#000000" stroke-width="2" stroke-linecap="round" stroke-linejoin="round"/><path d="M 335,645 L 341.49717514124296,638.0434782608696 M 335,645 L 328.50282485875704,638.0434782608696 Z" fill="rgb(255,255,255)" stroke="#000000" stroke-width="2" stroke-linecap="round" stroke-linejoin="round"/></g></g><g id="1vdtewwkny"><g><path d="M 335,685 L 335,735" fill="none" stroke="#000000" stroke-width="2" stroke-linecap="round" stroke-linejoin="round"/><path d="M 335,735 L 341.49717514124296,728.0434782608696 M 335,735 L 328.50282485875704,728.0434782608696 Z" fill="rgb(255,255,255)" stroke="#000000" stroke-width="2" stroke-linecap="round" stroke-linejoin="round"/></g></g><g id="22wns8p54z"><g><path d="M 335,775 L 335,820" fill="none" stroke="#000000" stroke-width="2" stroke-linecap="round" stroke-linejoin="round"/><path d="M 335,820 L 341.49717514124296,813.0434782608696 M 335,820 L 328.50282485875704,813.0434782608696 Z" fill="rgb(255,255,255)" stroke="#000000" stroke-width="2" stroke-linecap="round" stroke-linejoin="round"/></g></g><g id="1ux0opennm"><g><path d="M 335,860 L 335,895" fill="none" stroke="#000000" stroke-width="2" stroke-linecap="round" stroke-linejoin="round"/><path d="M 335,895 L 341.49717514124296,888.0434782608696 M 335,895 L 328.50282485875704,888.0434782608696 Z" fill="rgb(255,255,255)" stroke="#000000" stroke-width="2" stroke-linecap="round" stroke-linejoin="round"/></g></g><g id="9akils8n64"><g transform="translate(275 980)"><path d="M 17.499999701976776,34.99999940395355 L 17.499999701976776,34.99999940395355 L 17.499999701976776,34.99999940395355 A 17.499999701976776 17.499999701976776 0 0 1 0 17.49999970197678 L 0,17.499999701976776 L 0,17.49999970197678 A 17.499999701976776 17.499999701976776 0 0 1 17.499999701976776 0 L 107.49999731779099,0 L 107.49999731779099,0 L 107.49999731779099,0 A 17.499999701976776 17.499999701976776 0 0 1 124.99999701976776 17.499999701976776 L 124.99999701976776,17.499999701976776 L 124.99999701976776,17.499999701976776 A 17.499999701976776 17.499999701976776 0 0 1 107.49999731779099 34.99999940395355 L 17.499999701976776,34.99999940395355 Z" fill="rgba(255,255,255,1)" stroke="#000000" stroke-width="2" stroke-linecap="round" stroke-linejoin="round"/></g><g transform="translate(293.4999985098839, 987.4999997019768) rotate(0, 44, 10)" width="88" height="20"><text text-decoration="none" x="4" fill="rgb(0, 0, 0)" font-size="13pt" font-family="Arial"  y="16">Inspection</text><text text-decoration="none" x="84" fill="#4b4b4b" font-size="10pt" font-family="noto_regular"  y="16"></text></g></g><g id="dcljop0bvk"><g><path d="M 335,935 L 335,980" fill="none" stroke="#000000" stroke-width="2" stroke-linecap="round" stroke-linejoin="round"/><path d="M 335,980 L 341.49717514124296,973.0434782608696 M 335,980 L 328.50282485875704,973.0434782608696 Z" fill="rgb(255,255,255)" stroke="#000000" stroke-width="2" stroke-linecap="round" stroke-linejoin="round"/></g></g><g id="1l29od5sva"><g transform="translate(270 1060)"><path d="M 17.499999701976776,34.99999940395355 L 17.499999701976776,34.99999940395355 L 17.499999701976776,34.99999940395355 A 17.499999701976776 17.499999701976776 0 0 1 0 17.49999970197678 L 0,17.499999701976776 L 0,17.49999970197678 A 17.499999701976776 17.499999701976776 0 0 1 17.499999701976776 0 L 117.49999672174454,0 L 117.49999672174454,0 L 117.49999672174454,0 A 17.499999701976776 17.499999701976776 0 0 1 134.9999964237213 17.499999701976776 L 134.9999964237213,17.499999701976776 L 134.9999964237213,17.499999701976776 A 17.499999701976776 17.499999701976776 0 0 1 117.49999672174454 34.99999940395355 L 17.499999701976776,34.99999940395355 Z" fill="rgba(255,255,255,1)" stroke="#000000" stroke-width="2" stroke-linecap="round" stroke-linejoin="round"/></g><g transform="translate(309.49999821186066, 1067.4999997019768) rotate(0, 28, 10)" width="56" height="20"><text text-decoration="none" x="2.5" fill="rgb(0, 0, 0)" font-size="13pt" font-family="Arial"  y="16">Report</text><text text-decoration="none" x="53.5" fill="#4b4b4b" font-size="10pt" font-family="noto_regular"  y="16"></text></g></g><g id="26zokhrgdk"><g><path d="M 335,1015 L 335,1060" fill="none" stroke="#000000" stroke-width="2" stroke-linecap="round" stroke-linejoin="round"/><path d="M 335,1060 L 341.49717514124296,1053.0434782608695 M 335,1060 L 328.50282485875704,1053.0434782608695 Z" fill="rgb(255,255,255)" stroke="#000000" stroke-width="2" stroke-linecap="round" stroke-linejoin="round"/></g></g><g id="13o9qspqwc"><g transform="translate(475 555)"><path d="M 20.000001788139343,40.00000357627869 L 20.000001788139343,40.00000357627869 L 20.000001788139343,40.00000357627869 A 20.000001788139343 20.000001788139343 0 0 1 0 20.000001788139347 L 0,20.000001788139343 L 0,20.000001788139347 A 20.000001788139343 20.000001788139343 0 0 1 20.000001788139343 0 L 106.42856657505035,0 L 106.42856657505035,0 L 106.42856657505035,0 A 20.000001788139343 20.000001788139343 0 0 1 126.4285683631897 20.000001788139343 L 126.4285683631897,20.000001788139343 L 126.4285683631897,20.000001788139343 A 20.000001788139343 20.000001788139343 0 0 1 106.42856657505035 40.00000357627869 L 20.000001788139343,40.00000357627869 Z" fill="rgba(255,255,255,1)" stroke="#000000" stroke-width="2" stroke-linecap="round" stroke-linejoin="round"/></g><g transform="translate(485.21428418159485, 555.0000017881393) rotate(0, 53, 20)" width="106" height="40"><text text-decoration="none" x="5" fill="rgb(0, 0, 0)" font-size="13pt" font-family="Arial"  y="16">Membership</text><text text-decoration="none" x="101" fill="rgb(0, 0, 0)" font-size="13pt" font-family="Arial"  y="16"></text><text text-decoration="none" x="25" fill="rgb(0, 0, 0)" font-size="13pt" font-family="Arial"  y="36">Expires</text><text text-decoration="none" x="81" fill="#4b4b4b" font-size="10pt" font-family="noto_regular"  y="36"></text></g></g><g id="xt2vbfw5gy"><g transform="translate(515 640)"><path d="M 25,0 L 0,25 L 25,50 L 50,25 L 25,0 Z" fill="rgba(255,255,255,1)" stroke="#000000" stroke-width="2" stroke-linecap="round" stroke-linejoin="round"/></g></g><g id="2bthu46pn7"><g><path d="M 333.28947097063065,665.0000017881393 L 515,665" fill="none" stroke="#000000" stroke-width="2" stroke-linecap="round" stroke-linejoin="round"/><path d="M 515,665 L 508.0434781969335,658.5028249272134 M 515,665 L 508.0434783248056,671.4971752096992 Z" fill="rgb(255,255,255)" stroke="#000000" stroke-width="2" stroke-linecap="round" stroke-linejoin="round"/></g></g><g id="bs3snyrbd1"><g><path d="M 540,640 L 540,595" fill="none" stroke="#000000" stroke-width="2" stroke-linecap="round" stroke-linejoin="round"/><path d="M 540,595 L 533.5028248587571,601.9565217391304 M 540,595 L 546.4971751412429,601.9565217391304 Z" fill="rgb(255,255,255)" stroke="#000000" stroke-width="2" stroke-linecap="round" stroke-linejoin="round"/></g></g><g id="21lkc0oaxa"><g transform="translate(610 645)"><path d="M 22.499999403953552,44.999998807907104 L 22.499999403953552,44.999998807907104 L 22.499999403953552,44.999998807907104 A 22.499999403953552 22.499999403953552 0 0 1 0 22.499999403953556 L 0,22.499999403953552 L 0,22.499999403953556 A 22.499999403953552 22.499999403953552 0 0 1 22.499999403953552 0 L 82.4999988079071,0 L 82.4999988079071,0 L 82.4999988079071,0 A 22.499999403953552 22.499999403953552 0 0 1 104.99999821186066 22.499999403953552 L 104.99999821186066,22.499999403953552 L 104.99999821186066,22.499999403953552 A 22.499999403953552 22.499999403953552 0 0 1 82.4999988079071 44.999998807907104 L 22.499999403953552,44.999998807907104 Z" fill="rgba(255,255,255,1)" stroke="#000000" stroke-width="2" stroke-linecap="round" stroke-linejoin="round"/></g><g transform="translate(634.4999991059303, 657.4999994039536) rotate(0, 28, 10)" width="56" height="20"><text text-decoration="none" x="3" fill="rgb(0, 0, 0)" font-size="13pt" font-family="Arial"  y="16">Renew</text><text text-decoration="none" x="53" fill="#4b4b4b" font-size="10pt" font-family="noto_regular"  y="16"></text></g></g><g id="26g9iwyyns"><g><path d="M 565,665 L 610,665" fill="none" stroke="#000000" stroke-width="2" stroke-linecap="round" stroke-linejoin="round"/><path d="M 610,665 L 603.0434782608696,658.5028248587571 M 610,665 L 603.0434782608696,671.4971751412429 Z" fill="rgb(255,255,255)" stroke="#000000" stroke-width="2" stroke-linecap="round" stroke-linejoin="round"/></g></g><g id="1wcyz2or5v"><g><path d="M 660,690 L 390,755" fill="none" stroke="#000000" stroke-width="2" stroke-linecap="round" stroke-linejoin="round"/><path d="M 390,755 L 397.0756266594171,761.3672589785186 M 390,755 L 396.8350317938021,748.3751362353107 Z" fill="rgb(255,255,255)" stroke="#000000" stroke-width="2" stroke-linecap="round" stroke-linejoin="round"/></g></g><g id="26ad31lgcy"><g><path d="M 310,1188.2333333333336 L 180,1191 L 180,1075" fill="none" stroke="#000000" stroke-width="2" stroke-linecap="round" stroke-linejoin="round"/></g></g><g id="1ikpraqgdk"><g><path d="M 270,1075 L 180,1077.4999997019768 L 180,1075" fill="none" stroke="#000000" stroke-width="2" stroke-linecap="round" stroke-linejoin="round"/><path d="M 270,1075 L 277.13424692618764,1081.3015077814093 M 270,1075 L 276.77343197112845,1068.3121678508298 Z" fill="rgb(255,255,255)" stroke="#000000" stroke-width="2" stroke-linecap="round" stroke-linejoin="round"/></g></g><g id="2ikxgkcj8m"><g transform="translate(515 1275)"><path d="L 20,10 A 10 10 0 1 0 19.999995000000418 10.009999998333337 M 18.5,10 L 18.5,10 A 8.5 8.5 0 1 1 18.499995750000352 9.99150000141666" fill="rgba(255,255,255,1)" stroke="#ffffff" stroke-width="2" stroke-linecap="round" stroke-linejoin="round"/><ellipse cx="10" cy="10" rx="5" ry="5" fill="rgba(255,255,255,1)" stroke="#ffffff" stroke-width="2" stroke-linecap="round" stroke-linejoin="round"/><path d="M 18.5,10 L 18.5,10 A 8.5 8.5 0 1 0 18.499995750000352 10.008499998583336 M 15,10 L 15,10 A 5 5 0 1 1 14.999997500000209 9.99500000083333" fill="rgba(255,255,255,0.01)" stroke="rgba(255,255,255,0.01)" stroke-width="2" stroke-linecap="round" stroke-linejoin="round"/></g></g><g id="1l7btyth34"><g transform="translate(310 1163.2333333333336)"><path d="M 25,0 L 0,25 L 25,50 L 50,25 L 25,0 Z" fill="rgba(255,255,255,1)" stroke="#000000" stroke-width="2" stroke-linecap="round" stroke-linejoin="round"/></g></g><g id="5jf8utasir"><g transform="translate(450 1165)"><path d="M 25,50 L 25,50 L 25,50 A 25 25 0 0 1 0 25.000000000000004 L 0,25 L 0,25.000000000000004 A 25 25 0 0 1 25 0 L 125,0 L 125,0 L 125,0 A 25 25 0 0 1 150 25 L 150,25 L 150,25 A 25 25 0 0 1 125 50 L 25,50 Z" fill="rgba(255,255,255,1)" stroke="#000000" stroke-width="2" stroke-linecap="round" stroke-linejoin="round"/></g><g transform="translate(481, 1170) rotate(0, 44, 20)" width="88" height="40"><text text-decoration="none" x="4.5" fill="rgb(0, 0, 0)" font-size="13pt" font-family="Arial"  y="16">Customer&#160;</text><text text-decoration="none" x="83.5" fill="rgb(0, 0, 0)" font-size="13pt" font-family="Arial"  y="16"></text><text text-decoration="none" x="17.5" fill="rgb(0, 0, 0)" font-size="13pt" font-family="Arial"  y="36">Leaves</text><text text-decoration="none" x="70.5" fill="#4b4b4b" font-size="10pt" font-family="noto_regular"  y="36"></text></g></g><g id="2km3pi62zs"><g><path d="M 360,1188.2333333333336 L 450,1190" fill="none" stroke="#000000" stroke-width="2" stroke-linecap="round" stroke-linejoin="round"/><path d="M 450,1190 L 443.172330702661,1183.3675486063482 M 450,1190 L 442.91730554805315,1196.35939610524 Z" fill="rgb(255,255,255)" stroke="#000000" stroke-width="2" stroke-linecap="round" stroke-linejoin="round"/></g></g><g id="2ecoraewi1"><g><path d="M 335,1095 L 335,1163.2333333333336" fill="none" stroke="#000000" stroke-width="2" stroke-linecap="round" stroke-linejoin="round"/><path d="M 335,1163.2333333333336 L 341.49717514124296,1156.276811594203 M 335,1163.2333333333336 L 328.50282485875704,1156.276811594203 Z" fill="rgb(255,255,255)" stroke="#000000" stroke-width="2" stroke-linecap="round" stroke-linejoin="round"/></g></g><g id="ss1j38k75m"><g><path d="M 525,1215 L 525,1275" fill="none" stroke="#000000" stroke-width="2" stroke-linecap="round" stroke-linejoin="round" stroke-dasharray="5 5"/><path d="M 525,1275 L 531.4971751412429,1268.0434782608695 M 525,1275 L 518.5028248587571,1268.0434782608695 Z" fill="rgb(255,255,255)" stroke="#000000" stroke-width="2" stroke-linecap="round" stroke-linejoin="round"/></g></g><g id="6sduzzvi3x"><g><path d="M 600,575 L 850,715 L 850,1022.5 L 600,1190" fill="none" stroke="#000000" stroke-width="2" stroke-linecap="round" stroke-linejoin="round"/><path d="M 600,1190 L 606.9565217391304,1196.497175141243 M 600,1190 L 606.9565217391304,1183.502824858757 Z" fill="rgb(255,255,255)" stroke="#000000" stroke-width="2" stroke-linecap="round" stroke-linejoin="round"/></g></g></svg>